<svg width="28" height="22" viewBox="0 0 28 22" fill="none" xmlns="http://www.w3.org/2000/svg">
<g clip-path="url(#clip0_263_507)">
<path d="M12.1992 21.0134L1.61529 17.98C0.657387 17.7077 0 16.8343 0 15.8388V8.98793C0 7.15194 1.76086 5.82778 3.52641 6.33021L7.78065 7.54637C10.3961 8.29767 12.1992 10.6877 12.1992 13.4112V21.0134Z" fill="#FFFFFF"/>
<path d="M26.3847 17.98L15.8008 21.0087V13.4112C15.8008 10.6877 17.6039 8.29767 20.2194 7.54638L24.4736 6.33021C26.2392 5.82308 28 7.15194 28 8.98793V15.8388C28 16.8343 27.3426 17.7077 26.3847 17.98Z" fill="#FFFFFF"/>
<path d="M14.0023 7.8422C15.8955 7.8422 17.4301 6.30752 17.4301 4.41439C17.4301 2.52127 15.8955 0.986588 14.0023 0.986588C12.1092 0.986588 10.5745 2.52127 10.5745 4.41439C10.5745 6.30752 12.1092 7.8422 14.0023 7.8422Z" fill="#FFFFFF"/>
</g>
<defs>
<clipPath id="clip0_263_507">
<rect width="28" height="20.0268" fill="white" transform="translate(0 0.986588)"/>
</clipPath>
</defs>
</svg>
