<svg width="28" height="28" viewBox="0 0 28 28" fill="none" xmlns="http://www.w3.org/2000/svg">
<path d="M0 11.4219C0 10.9288 0 10.4356 0 9.94794C0.0164384 9.87123 0.0328767 9.78904 0.0493151 9.71233C0.153425 9.12055 0.208219 8.51781 0.367123 7.94246C1.76438 2.86301 6.35069 -0.369864 11.5945 0.0465748C14.7178 0.29315 17.2384 1.71781 19.1616 4.1726C20.4658 5.83288 21.1836 7.73973 21.3479 9.84931C21.3644 10.0247 21.3205 10.2055 21.5945 10.2877C27.1507 12.0301 29.6384 18.2548 26.8493 23.3836C26.7945 23.4822 26.7781 23.6247 26.8055 23.7342C26.9863 24.4411 27.189 25.137 27.3808 25.8384C27.5726 26.5288 27.7589 27.2192 27.9562 27.9425C27.8685 27.9205 27.8192 27.9096 27.7644 27.8986C26.4658 27.5425 25.1671 27.1863 23.8685 26.8192C23.6658 26.7644 23.5068 26.7753 23.3041 26.863C22.5808 27.1753 21.8466 27.4767 21.0959 27.7178C20.6247 27.8712 20.1151 27.9041 19.6274 27.9918C19.1726 27.9918 18.7178 27.9918 18.2575 27.9918C18.1863 27.9753 18.1205 27.9479 18.0493 27.9425C14.4548 27.5973 11.3808 25.0986 10.3014 21.6247C10.2411 21.4274 10.1534 21.3562 9.95069 21.3397C8.32877 21.2301 6.80548 20.7753 5.3863 19.9753C5.29863 19.926 5.16164 19.9205 5.05753 19.9479C4.08219 20.211 3.11233 20.4795 2.13699 20.7479C1.44658 20.9397 0.761644 21.126 0.0383562 21.3233C0.0657534 21.1973 0.0821918 21.1096 0.10411 21.0274C0.526027 19.5041 0.942466 17.9753 1.37534 16.4521C1.4411 16.2164 1.43014 16.0356 1.30959 15.8164C0.816438 14.9397 0.454795 14.0082 0.252055 13.0219C0.158904 12.4959 0.0876712 11.9589 0 11.4219ZM2.4 18.9726C2.48767 18.9507 2.53699 18.9397 2.5863 18.9288C3.45205 18.6877 4.32329 18.4575 5.18904 18.2055C5.41918 18.1397 5.59452 18.1616 5.79726 18.2931C7.86301 19.6027 10.1041 20.0356 12.4986 19.5534C17.337 18.5726 20.4603 13.926 19.5945 9.04931C18.6466 3.72877 13.1452 0.413698 7.98356 2.04657C2.46575 3.79452 -0.0383562 10.1726 2.85479 15.1753C3.15616 15.7014 3.2274 16.1288 3.03562 16.6877C2.78904 17.4219 2.6137 18.1836 2.4 18.9726ZM25.611 25.6027C25.4247 24.9342 25.2712 24.3041 25.0795 23.6959C24.9863 23.411 25.0301 23.1918 25.189 22.9397C27.4521 19.3836 26.3452 14.7315 22.7233 12.5726C22.2904 12.3151 21.8192 12.1233 21.3753 11.9041C20.3616 17.2356 17.2274 20.3589 11.9452 21.3562C12.3616 22.5671 13.0521 23.6137 14.0219 24.4685C16.5644 26.7096 20.126 26.9781 22.9863 25.1534C23.2164 25.0055 23.4137 24.9781 23.6712 25.0548C24.2959 25.2466 24.9315 25.411 25.611 25.6027Z" fill="#A7A7A7"/>
<path d="M11.5123 13.1589C10.9534 13.1589 10.4274 13.1589 9.87396 13.1589C9.87396 12.5178 9.86848 11.8931 9.87944 11.2685C9.87944 11.1808 9.97807 11.0822 10.0493 11.011C10.6411 10.4575 11.2493 9.92055 11.8356 9.36164C12.3397 8.87945 12.4657 8.14521 12.1808 7.52055C11.9014 6.90685 11.2767 6.52877 10.5972 6.55616C9.83012 6.58904 9.17259 7.19178 9.06848 7.94794C9.05752 8.01918 9.04656 8.09041 9.0356 8.17808C8.49313 8.17808 7.96163 8.17808 7.4082 8.17808C7.44656 7.00548 7.93423 6.09041 8.89861 5.45479C10.3288 4.51781 12.1972 4.82466 13.2493 6.13973C14.3178 7.48767 14.1918 9.38356 12.9424 10.5781C12.526 10.9726 12.0931 11.3507 11.6822 11.7507C11.589 11.8384 11.5288 11.9918 11.5233 12.1233C11.5014 12.463 11.5123 12.8082 11.5123 13.1589Z" fill="#A7A7A7"/>
<path d="M9.89038 14.8247C10.4328 14.8247 10.9589 14.8247 11.4959 14.8247C11.4959 15.3671 11.4959 15.9041 11.4959 16.4411C10.9534 16.4411 10.4274 16.4411 9.89038 16.4411C9.89038 15.8986 9.89038 15.3616 9.89038 14.8247Z" fill="#A7A7A7"/>
</svg>
