<svg width="28" height="26" viewBox="0 0 28 26" fill="none" xmlns="http://www.w3.org/2000/svg">
<g clip-path="url(#clip0_263_523)">
<path d="M28 5.02296C27.8028 5.68772 27.5909 6.35977 27.401 7.02453C26.5098 10.1291 25.6259 13.2338 24.7347 16.3384C24.5667 16.9228 24.3183 17.1054 23.712 17.1054C18.8907 17.1054 14.0694 17.1054 9.24812 17.1054C8.59067 17.1054 8.21081 17.4049 8.21081 17.9236C8.21081 18.4422 8.59067 18.7417 9.24812 18.7417C14.0621 18.7417 18.8688 18.7417 23.6828 18.7417C24.3402 18.7417 24.7201 19.0412 24.7201 19.5599C24.7201 20.0785 24.3402 20.378 23.6828 20.378C23.3394 20.378 22.9888 20.378 22.5797 20.378C24.1138 20.7798 24.8735 21.8463 24.6762 23.2635C24.5228 24.3958 23.4271 25.3089 22.251 25.3016C20.9726 25.2943 19.9499 24.3519 19.8184 23.0297C19.7089 21.9413 20.3955 20.7214 21.9296 20.4C18.2698 20.4 14.6611 20.4 11.0598 20.4C11.7318 20.5461 12.287 20.8748 12.6815 21.4446C13.0759 22.007 13.1928 22.6353 13.0832 23.3146C12.8933 24.4396 11.7683 25.3527 10.6142 25.3016C9.30656 25.2505 8.32039 24.2862 8.21812 22.9567C8.13046 21.766 9.00706 20.6775 10.2781 20.3853C9.88365 20.3853 9.49649 20.3926 9.10202 20.3853C7.94053 20.3707 7.0128 19.6987 6.68407 18.6468C6.34074 17.5291 6.82287 16.3384 7.85287 15.7759C7.91861 15.7394 7.97705 15.7028 8.0501 15.659C7.05663 11.2176 6.07045 6.79077 5.08428 2.34203C4.63137 2.34203 4.18577 2.34203 3.74016 2.34203C2.78321 2.34203 1.82626 2.34934 0.869306 2.34203C0.241077 2.33473 -0.160697 1.77225 0.0657576 1.22437C0.197247 0.902953 0.452922 0.713023 0.803561 0.713023C2.43988 0.698413 4.0835 0.698413 5.72712 0.705718C6.18733 0.705718 6.45762 0.968698 6.56719 1.45083C6.75712 2.28359 6.93975 3.11636 7.12968 3.97835C7.24656 3.97835 7.36344 3.97835 7.48032 3.97835C13.9525 3.97835 20.4174 3.98566 26.8897 3.97105C27.3937 3.97105 27.7736 4.10984 27.9927 4.57736C28 4.73076 28 4.87686 28 5.02296ZM26.0861 5.63658C19.8696 5.63658 13.6969 5.63658 7.50223 5.63658C8.23273 8.92382 8.95592 12.1892 9.67911 15.4472C14.2301 15.4472 18.7519 15.4472 23.281 15.4472C24.216 12.1745 25.1511 8.91652 26.0861 5.63658ZM10.6726 23.6653C11.1182 23.658 11.4908 23.2854 11.4834 22.8398C11.4761 22.3942 11.1036 22.0217 10.658 22.029C10.2124 22.0363 9.83982 22.4088 9.84713 22.8544C9.84713 23.3 10.227 23.6653 10.6726 23.6653ZM23.0765 22.8398C23.0691 22.3942 22.6966 22.0217 22.251 22.029C21.8054 22.0363 21.4328 22.4088 21.4401 22.8544C21.4474 23.3 21.82 23.6726 22.2656 23.6653C22.7112 23.658 23.0765 23.2854 23.0765 22.8398Z" fill="#A7A7A7"/>
</g>
<defs>
<clipPath id="clip0_263_523">
<rect width="28" height="24.6032" fill="white" transform="translate(0 0.69841)"/>
</clipPath>
</defs>
</svg>
