<svg width="28" height="26" viewBox="0 0 28 26" fill="none" xmlns="http://www.w3.org/2000/svg">
<g clip-path="url(#clip0_263_517)">
<path d="M27.7095 9.52551C27.05 8.03365 26.3747 6.51822 25.723 5.05776C25.2519 4.0056 24.7808 2.94559 24.3096 1.89343C24.0348 1.26528 23.5873 0.966904 22.9434 0.966904C16.9445 0.974756 10.9378 0.966904 5.0724 0.966904C4.43639 0.966904 3.98098 1.26528 3.71402 1.85417L2.88956 3.70723C2.01015 5.67021 1.13858 7.6332 0.259164 9.60403C-0.0156536 10.2165 -0.0706171 10.8446 0.0864216 11.4571C0.408351 12.7055 1.24066 13.4672 2.57548 13.7263V24.0359C2.57548 24.4285 2.6383 24.6562 2.79534 24.8132C2.95238 24.9703 3.18008 25.0331 3.57268 25.0331C7.05109 25.0331 10.5295 25.0331 14.0079 25.0331C17.4863 25.0331 20.9647 25.0331 24.4431 25.0331C24.8357 25.0331 25.0634 24.9703 25.2205 24.8132C25.3775 24.6562 25.4403 24.4285 25.4403 24.0359V13.7184C25.4639 13.7184 25.4796 13.7106 25.5031 13.7106C26.4689 13.53 27.262 12.9647 27.686 12.1638C28.0864 11.3707 28.1021 10.4049 27.7095 9.52551ZM11.935 10.1772C12.0371 9.38418 12.1234 8.57543 12.2098 7.79809C12.2491 7.44475 12.2805 7.09141 12.3197 6.73808C12.4454 5.57599 12.5789 4.40605 12.7123 3.24396C12.7202 3.1733 12.728 3.10263 12.7359 3.03196C12.7594 2.87492 12.783 2.71789 12.783 2.55299C12.783 2.49018 12.7987 2.45877 12.7987 2.45092C12.7987 2.45092 12.8223 2.43522 12.9165 2.43522C12.9243 2.43522 12.9243 2.43522 12.9322 2.43522C13.1834 2.44307 13.4347 2.44307 13.686 2.43522C13.788 2.43522 13.8901 2.43522 14.0001 2.43522H14.2827C14.5575 2.43522 14.8402 2.43522 15.115 2.43522C15.2092 2.43522 15.2171 2.43522 15.225 2.55299C15.4448 4.61805 15.6804 6.71452 15.9002 8.74032L15.9316 8.99158C15.963 9.25855 15.9944 9.53337 16.0259 9.79248C16.0494 9.94952 16.0651 10.1066 16.0808 10.2714C16.1358 10.7426 16.0023 11.2058 15.7118 11.567C15.3977 11.9518 14.9187 12.1873 14.3769 12.2266C13.9294 12.258 13.5289 12.2344 13.1756 12.1481C12.3511 11.9361 11.8094 11.088 11.935 10.1772ZM23.917 23.3842C23.917 23.4863 23.9013 23.5098 23.9013 23.5098C23.9013 23.5098 23.8856 23.5255 23.7757 23.5255C19.5592 23.5177 16.1436 23.5177 13.0186 23.5255C12.9243 23.5255 12.9086 23.5098 12.9086 23.5098C12.8929 23.4941 12.8929 23.3763 12.8929 23.3371C12.8929 21.3819 12.8929 19.3954 12.8929 17.4795V16.4038C12.8929 16.2939 12.8929 16.1761 12.8851 16.0662C12.8458 15.65 12.5631 15.3831 12.1548 15.3752C11.3147 15.3752 10.4667 15.3674 9.61082 15.3674C8.78637 15.3674 7.96191 15.3674 7.12961 15.3674C6.72131 15.3674 6.42293 15.6422 6.37582 16.074C6.36797 16.1604 6.36797 16.2389 6.36797 16.3174C6.36797 16.341 6.36797 16.3645 6.36797 16.3881V23.4863H4.09876V21.3348C4.09876 18.9086 4.09876 16.396 4.09091 13.9226C4.09091 13.7106 4.12232 13.6713 4.31861 13.6242C4.85255 13.4986 5.33937 13.2081 5.75552 12.7448C5.77907 12.7134 5.80263 12.6898 5.83404 12.6584C6.4779 13.4044 7.33376 13.7577 8.44873 13.7342C9.24178 13.7184 10.0662 13.6556 10.7493 13.0746C10.8907 12.9568 11.0242 12.8155 11.1498 12.682C11.1734 12.6584 11.1969 12.6349 11.2126 12.6113C13.0814 14.1739 15.0522 14.1739 16.7953 12.6113C16.8189 12.6427 16.8503 12.6663 16.8739 12.6977C17.4549 13.3494 18.1694 13.687 18.9939 13.7106C19.3394 13.7184 19.6927 13.7184 20.0303 13.7106C20.8155 13.6949 21.5065 13.373 22.0797 12.7605C22.1111 12.7213 22.1425 12.6898 22.1818 12.6506C22.2053 12.6741 22.221 12.7055 22.2446 12.7291C22.6686 13.2002 23.1868 13.5064 23.7679 13.6399C23.9013 13.6713 23.917 13.687 23.917 13.8127C23.9092 17.0634 23.9092 20.2827 23.917 23.3842ZM11.2833 2.5687C11.2205 3.10263 11.1576 3.64441 11.1027 4.16264C11.0791 4.3982 11.0477 4.63376 11.0242 4.86932L10.8828 6.10207C10.82 6.65956 10.7572 7.21704 10.6944 7.77453C10.6551 8.11216 10.6237 8.4498 10.5845 8.79528C10.5059 9.53336 10.4274 10.295 10.3253 11.0331C10.2311 11.7162 9.68149 12.1873 8.912 12.2344C8.58222 12.258 8.24458 12.2423 7.9148 12.203C7.5065 12.1559 7.13746 11.9282 6.90975 11.5984C6.68205 11.2608 6.61923 10.8603 6.72131 10.4599C7.39657 7.95513 8.10325 5.4111 8.79422 2.94559L8.81777 2.86707C8.84133 2.77285 8.86489 2.69433 8.88059 2.63151C8.89629 2.55299 8.91985 2.46662 8.9277 2.45092C8.95126 2.43522 9.04548 2.43522 9.14755 2.43522C9.17111 2.43522 9.18681 2.43522 9.21037 2.43522C9.26533 2.43522 9.3203 2.43522 9.38311 2.43522C9.548 2.43522 9.72075 2.43522 9.88564 2.43522H10.1133C10.2154 2.43522 10.3096 2.43522 10.4117 2.43522C10.6551 2.43522 10.9064 2.44307 11.1498 2.42736C11.2519 2.41951 11.2754 2.44307 11.2754 2.44307C11.2754 2.45092 11.2911 2.47448 11.2833 2.5687ZM21.2945 11.0802C21.2003 11.7398 20.6742 12.1795 19.9126 12.2344C19.5906 12.258 19.2451 12.2501 18.884 12.203C18.2558 12.1324 17.7454 11.622 17.6748 10.986C17.5727 10.0909 17.4706 9.17218 17.3764 8.29276C17.2979 7.56253 17.2193 6.82445 17.133 6.09422C17.023 5.09702 16.8974 4.01345 16.7325 2.68648C16.7247 2.62366 16.709 2.49803 16.7168 2.44307C16.7639 2.42736 16.8896 2.42736 16.9367 2.42736C17.1565 2.42736 17.3685 2.42736 17.5884 2.42736H17.8789C17.981 2.42736 18.0752 2.42736 18.1773 2.42736C18.4207 2.42736 18.6641 2.42736 18.9154 2.41951C19.041 2.41166 19.0803 2.43522 19.1274 2.5844C19.4179 3.63656 19.7084 4.68872 19.9989 5.74088C20.3837 7.12282 20.7763 8.54402 21.161 9.94952C21.2552 10.3421 21.3416 10.7347 21.2945 11.0802ZM21.9776 7.29556C21.7578 6.50252 21.5379 5.70947 21.3181 4.91643C21.0982 4.12338 20.8783 3.33819 20.6585 2.54514C20.6506 2.51373 20.6428 2.48233 20.6349 2.44307H21.1218C21.2788 2.44307 21.428 2.44307 21.585 2.44307C21.9698 2.44307 22.3702 2.44307 22.7707 2.44307C22.8884 2.44307 22.9356 2.47448 22.9827 2.5844C23.4067 3.54234 23.8307 4.49242 24.2547 5.45036C24.9456 7.00504 25.6602 8.61469 26.3511 10.2008C26.5474 10.6483 26.5317 11.1273 26.3119 11.5121C26.0842 11.9046 25.668 12.1638 25.1734 12.2187C24.8043 12.258 24.4667 12.2501 24.1683 12.1952C23.5794 12.0852 23.2104 11.7162 23.0298 11.0645C22.6843 9.80818 22.331 8.55187 21.9776 7.29556ZM1.64896 10.2008C1.98659 9.40773 2.34778 8.60684 2.69326 7.83735C2.8346 7.52327 2.96808 7.21704 3.10942 6.90297C3.28216 6.51822 3.44705 6.14133 3.61979 5.75658C4.0752 4.73583 4.54632 3.67582 5.00173 2.63151C5.0724 2.47448 5.13522 2.42736 5.30011 2.42736C5.30796 2.42736 5.31581 2.42736 5.32366 2.42736C5.73982 2.43522 6.15597 2.43522 6.56427 2.43522C6.79197 2.43522 7.01183 2.43522 7.23953 2.43522C7.28665 2.43522 7.33376 2.44307 7.38872 2.44307L7.2945 2.80426C7.19242 3.1733 7.0982 3.52663 6.99612 3.87997C6.31301 6.27481 5.64559 8.6618 4.97818 11.0488C4.75832 11.834 4.2401 12.2344 3.4392 12.2344C3.10942 12.2344 2.81889 12.2344 2.55193 12.1559C2.15148 12.046 1.8374 11.7869 1.66466 11.4257C1.48407 11.0566 1.47621 10.6091 1.64896 10.2008ZM7.87554 16.8985C7.9148 16.8985 7.94621 16.8906 7.97762 16.8906C8.3074 16.8906 8.63718 16.8906 8.97481 16.8906C9.72075 16.8906 10.4902 16.8906 11.244 16.8828C11.3382 16.8828 11.3618 16.8985 11.3697 16.8985C11.3697 16.8985 11.3854 16.922 11.3854 17.0006C11.3775 18.9557 11.3775 20.9501 11.3775 22.8738V23.4077C11.3775 23.4705 11.3697 23.502 11.3697 23.5098C11.3618 23.5098 11.3461 23.5177 11.3225 23.5177C10.6473 23.5177 9.97201 23.5098 9.29674 23.5098C8.82563 23.5098 8.35451 23.5098 7.89124 23.5098V16.8985H7.87554Z" fill="#A7A7A7"/>
<path d="M20.8076 15.3752C18.9938 15.3752 17.18 15.3752 15.3741 15.3752C14.793 15.3752 14.5104 15.65 14.5104 16.2232C14.5104 17.825 14.5104 19.4425 14.5104 21.0443C14.5104 21.6175 14.793 21.9002 15.3662 21.9002C15.7353 21.9002 16.1043 21.9002 16.4812 21.9002C16.756 21.9002 17.0308 21.9002 17.3057 21.9002H18.0752H18.9075C19.5513 21.9002 20.1952 21.9002 20.839 21.9002C21.373 21.9002 21.687 21.5939 21.687 21.0522C21.687 19.5289 21.687 17.9506 21.687 16.2311C21.6713 15.6814 21.3573 15.3752 20.8076 15.3752ZM20.1402 16.9142V20.3533H16.0572V16.9142H20.1402Z" fill="#A7A7A7"/>
</g>
<defs>
<clipPath id="clip0_263_517">
<rect width="28" height="24.0662" fill="white" transform="translate(0 0.966904)"/>
</clipPath>
</defs>
</svg>
