<svg width="222" height="46" viewBox="0 0 222 46" fill="none" xmlns="http://www.w3.org/2000/svg">
<path d="M75.1335 21.2308L71.6876 15.3418H66.649V21.2308H63.6921V3.53847H72.6142C74.2423 3.53847 75.6386 4.11588 76.8066 5.2707C77.9713 6.42551 78.5537 7.81321 78.5537 9.4274C78.5537 10.6524 78.203 11.7657 77.4983 12.7674C76.813 13.7532 75.9379 14.4582 74.8761 14.8825L78.5537 21.2308H75.1335ZM72.6142 6.49569H66.649V12.3591L72.6142 12.3846C73.4186 12.3846 74.1136 12.0975 74.6959 11.5169C75.2783 10.9395 75.5711 10.2441 75.5711 9.4274C75.5711 8.62987 75.2783 7.94081 74.6959 7.3634C74.1136 6.7828 73.4186 6.49569 72.6142 6.49569Z" fill="#5A524C"/>
<path d="M100.492 3.53847V6.49835H91.4563V10.9318H100.492V13.863H91.4563V18.2741H100.492V21.2308H88.4617V3.53847H100.492Z" fill="#5A524C"/>
<path d="M116.303 13.863C114.862 13.863 113.636 13.3622 112.626 12.3607C111.616 11.3592 111.111 10.1344 111.111 8.68955C111.111 7.27978 111.616 6.07414 112.626 5.06944C113.62 4.04879 114.846 3.53847 116.303 3.53847H125.969V6.49516H116.303C115.994 6.49516 115.701 6.54938 115.428 6.66101C115.154 6.77265 114.913 6.92894 114.707 7.13307C114.501 7.3372 114.344 7.57641 114.231 7.84752C114.119 8.11863 114.064 8.3993 114.064 8.68955C114.064 9.30194 114.279 9.82822 114.707 10.2716C115.135 10.7149 115.666 10.935 116.303 10.935H120.748C122.189 10.935 123.412 11.4357 124.425 12.4372C125.455 13.4388 125.966 14.654 125.966 16.0829C125.966 17.4927 125.451 18.7079 124.425 19.7285C123.415 20.73 122.189 21.2308 120.748 21.2308H111.108V18.2741H120.748C121.057 18.2741 121.347 18.2199 121.623 18.1082C121.897 17.9966 122.138 17.8435 122.344 17.6489C122.55 17.4544 122.707 17.2183 122.82 16.9472C122.933 16.6761 122.987 16.3859 122.987 16.0797C122.987 15.4864 122.765 14.9665 122.318 14.5232C121.89 14.083 121.366 13.8598 120.748 13.8598H116.303V13.863Z" fill="#5A524C"/>
<path d="M147.908 3.53847V6.49835H138.872V10.9318H147.908V13.863H138.872V18.2741H147.908V21.2308H135.877V3.53847H147.908Z" fill="#5A524C"/>
<path d="M169.257 21.2308L165.811 15.3418H160.772V21.2308H157.815V3.53847H166.738C168.366 3.53847 169.762 4.11588 170.93 5.2707C172.095 6.42551 172.677 7.81321 172.677 9.4274C172.677 10.6524 172.326 11.7657 171.622 12.7674C170.936 13.7532 170.061 14.4582 168.999 14.8825L172.677 21.2308H169.257ZM166.738 6.49569H160.772V12.3591L166.738 12.3846C167.542 12.3846 168.237 12.0975 168.819 11.5169C169.402 10.9395 169.694 10.2441 169.694 9.4274C169.694 8.62987 169.402 7.94081 168.819 7.3634C168.237 6.7828 167.542 6.49569 166.738 6.49569Z" fill="#5A524C"/>
<path d="M184.458 3.53847L190.016 14.6285L195.573 3.53847H198.862L190.016 21.2308L181.169 3.53847H184.458Z" fill="#5A524C"/>
<path d="M221.508 3.53847V6.49835H212.472V10.9318H221.508V13.863H212.472V18.2741H221.508V21.2308H209.477V3.53847H221.508Z" fill="#5A524C"/>
<path d="M102.012 38.8041C101.396 38.8041 100.871 38.6036 100.438 38.2027C100.004 37.8017 99.7879 37.3117 99.7879 36.7357C99.7879 36.1725 100.004 35.6888 100.438 35.2879C100.864 34.8806 101.39 34.6769 102.012 34.6769H106.154V35.8607H102.012C101.881 35.8607 101.754 35.8829 101.637 35.9275C101.52 35.972 101.417 36.0357 101.328 36.1152C101.238 36.198 101.173 36.2934 101.125 36.4016C101.077 36.5098 101.053 36.6212 101.053 36.7389C101.053 36.9839 101.146 37.1939 101.328 37.3721C101.51 37.5503 101.74 37.6362 102.012 37.6362H103.916C104.535 37.6362 105.057 37.8367 105.49 38.2377C105.93 38.6386 106.15 39.1255 106.15 39.695C106.15 40.2583 105.93 40.7451 105.49 41.1524C105.057 41.5534 104.531 41.7538 103.916 41.7538H99.7844V40.5701H103.916C104.05 40.5701 104.174 40.5478 104.291 40.5033C104.408 40.4587 104.511 40.3983 104.6 40.3187C104.689 40.2424 104.755 40.1469 104.803 40.0387C104.851 39.9305 104.875 39.8128 104.875 39.6919C104.875 39.4532 104.779 39.2464 104.59 39.0682C104.404 38.8932 104.181 38.8041 103.916 38.8041H102.012V38.8041Z" fill="#D28F5D"/>
<path d="M116.275 40.5701H113.023L112.422 41.7538H111.108L114.646 34.6769L118.185 41.7538H116.867L116.275 40.5701ZM113.606 39.3991H115.687L114.646 37.318L113.606 39.3991Z" fill="#D28F5D"/>
<path d="M121.046 34.6769L123.492 39.1127L125.939 34.6769H127.385L123.492 41.7538L119.6 34.6769H121.046Z" fill="#D28F5D"/>
<path d="M137.292 34.6769V35.8575H133.57V37.6331H137.292V38.8073H133.57V40.5701H137.292V41.7538H132.338V34.6769H137.292Z" fill="#D28F5D"/>
<path d="M149.323 34.6769H154.985V35.8575H152.726V41.7538H151.591V35.8575H149.323V34.6769Z" fill="#D28F5D"/>
<path d="M162.061 34.6769H160.646V41.7538H162.061V34.6769Z" fill="#D28F5D"/>
<path d="M168.896 37.5217V41.7538H167.723V34.6769L171.257 38.2154L174.8 34.6769V41.7538H173.608V37.5217L171.257 39.886L168.896 37.5217Z" fill="#D28F5D"/>
<path d="M184.708 34.6769V35.8575H180.988V37.6331H184.708V38.8073H180.988V40.5701H184.708V41.7538H179.754V34.6769H184.708Z" fill="#D28F5D"/>
<path d="M46.1192 28.3379C46.1192 34.2307 41.3349 39.0234 35.4525 39.0234C32.1097 39.0234 29.1231 37.4723 27.1634 35.0549C35.4299 33.5979 41.7366 26.3585 41.7366 17.6621C41.7333 7.9241 33.8232 0 24.1024 0H9.24417L5.66162 6.97658H24.0991C29.9815 6.97658 34.7658 11.7693 34.7658 17.6621C34.7658 23.3959 30.2374 28.0848 24.5753 28.3379H17.8151C17.8151 38.0791 25.7252 46 35.446 46C45.1701 46 53.077 38.0759 53.077 28.3379H46.1192V28.3379Z" fill="#D28F5D"/>
<path d="M24.7692 17.6923C24.7692 15.7371 23.25 14.1539 21.3738 14.1539H3.49334L0 21.2308H21.3738C23.25 21.2308 24.7692 19.6475 24.7692 17.6923Z" fill="#D28F5D"/>
</svg>
